<?xml version="1.0" encoding="UTF-8"?>
<svg id="Calque_1" data-name="Calque 1" xmlns="http://www.w3.org/2000/svg" viewBox="0 0 983 768" fill="#653239">

  <path class="cls-1" d="m142.07,225.06l-5.23,419.23,162.2-70.63v111.18l-214.52,26.16L31.54,249.91l110.53-24.85Z" />
  <path class="cls-1" d="m293.98,428.65c1.31.44,3.05,2.62,5.23,6.54,2.17,3.93,4.25,8.4,6.21,13.41,1.96,5.02,3.6,9.92,4.91,14.72,1.31,4.8,1.74,8.29,1.31,10.46,0,2.19-1.21,8.07-3.6,17.66-2.4,9.6-5.23,19.85-8.5,30.74-3.27,10.9-6.65,20.5-10.13,28.78-3.5,8.29-6.77,12.21-9.81,11.77-3.06-.43-9.15-1.31-18.31-2.62-9.15-1.31-18.86-2.83-29.1-4.58-10.25-1.74-19.62-3.81-28.12-6.21-8.5-2.39-13.41-4.91-14.72-7.52-.88-1.31-1.75-4.25-2.62-8.83-.88-4.58-1.96-10.24-3.27-17.01-1.31-6.76-2.62-14.28-3.93-22.56-1.31-8.28-2.62-16.57-3.93-24.85-3.06-19.62-6.11-41.42-9.15-65.4h1.31c2.18,0,4.14-.21,5.89-.66-1.31-3.92-1.75-7.52-1.31-10.79.43-3.27,2.39-5.12,5.89-5.56,11.77-.87,23.11-1.08,34.01-.65,9.15.44,18.31,1.31,27.47,2.61,9.15,1.31,16.35,3.71,21.58,7.19,4.79,3.5,8.72,9.49,11.77,17.99,3.05,8.5,5.23,17.12,6.54,25.84,1.74,10.46,2.83,21.58,3.27,33.35.87-8.28,1.96-15.7,3.27-22.23.87-5.66,2.07-10.79,3.6-15.37,1.53-4.58,2.95-6.64,4.25-6.21Zm-45.13,85.02c3.49.88,7.74.44,12.76-1.31,5.01-1.74,7.52-5.01,7.52-9.81,0-2.62-.55-8.17-1.64-16.68-1.1-8.5-2.4-17.44-3.93-26.82-1.53-9.37-3.27-17.66-5.23-24.85-1.96-7.19-3.6-10.79-4.91-10.79h-15.04c1.31,7.85,2.39,16.9,3.27,27.14.87,10.25,1.64,19.95,2.29,29.1.65,9.16,1.3,17.01,1.96,23.55.65,6.54,1.64,10.03,2.94,10.46Z" />
  <path class="cls-1" d="m337.63,493.56c7.85-1.74,15.26-3.27,22.23-4.58,6.1-.87,12.1-1.64,17.99-2.29,5.89-.66,10.14-.54,12.76.32,1.73.44,2.29,4.58,1.63,12.43-.65,7.85-2.07,17.44-4.25,28.78-2.19,11.35-4.8,23.45-7.85,36.3-3.06,12.87-5.67,24.85-7.85,35.97-2.19,11.12-3.82,20.39-4.91,27.8-1.1,7.42-.98,11.12.33,11.12h9.15c4.36,0,9.04-.33,14.06-.98,5.01-.65,10.14-1.96,15.37-3.92,5.23-1.96,9.81-4.91,13.73-8.83,2.62-2.62,4.47-9.04,5.56-19.29,1.08-10.24,1.73-22.23,1.96-35.97.21-13.74.33-28.23.33-43.49s.21-29.53.65-42.84c.43-13.3,1.41-24.3,2.95-33.03,1.52-8.72,4.02-13.51,7.52-14.39,4.79-1.31,11.45-3.16,19.95-5.56,8.5-2.39,16.89-4.36,25.18-5.89,8.28-1.52,15.47-2.29,21.58-2.29s9.37,1.75,9.81,5.23c.43,3.5-.33,11.56-2.29,24.2-1.96,12.65-4.48,25.95-7.52,39.9-3.06,13.96-6.32,26.6-9.81,37.94-3.5,11.34-6.32,17.66-8.5,18.97-2.19,1.31-4.04,2.19-5.56,2.62-1.53.44-2.95.88-4.25,1.3-1.75.44-3.06.66-3.92.66-1.31,22.68-2.84,42.95-4.58,60.82-.88,7.85-1.63,15.48-2.29,22.89-.65,7.42-1.31,14.06-1.96,19.95-.66,5.89-1.31,10.69-1.96,14.39-.66,3.71-1.21,5.78-1.64,6.21-1.31.88-4.15,1.96-8.5,3.27-4.36,1.31-9.05,2.4-14.06,3.27-5.02.88-9.38,1.31-13.08,1.31s-5.56-1.08-5.56-3.27v-7.52c0-2.83.22-5.56.66-8.17.43-3.05.86-6.1,1.31-9.16-13.96,7.85-27.26,14.18-39.9,18.97-10.91,4.36-21.7,7.52-32.37,9.48-10.69,1.96-18.87.55-24.53-4.25-2.62-2.17-4.48-6.54-5.56-13.08-1.1-6.54-1.64-14.39-1.64-23.54s.54-19.29,1.64-30.41c1.08-11.12,2.29-22.34,3.6-33.68,3.48-26.16,8.28-55.37,14.39-87.64Z" />
  <path class="cls-1" d="m836.67,57c1.69,0,2.25,6.4,1.69,19.19-.57,12.79-1.69,26.93-3.39,42.41-1.69,15.49-3.81,30.29-6.35,44.43-2.54,14.13-4.65,22.56-6.34,25.24-2.26,3.38-10.87,6.74-25.82,10.1-14.96,3.38-31.6,7.74-49.93,13.13-18.34,5.4-36.11,11.96-53.32,19.69-17.21,7.74-29.48,17.34-36.81,28.78-3.39,5.4-6.77,14.98-10.15,28.77-3.39,13.8-6.77,30.14-10.16,48.97,9.59-2.68,19.89-5.38,30.89-8.08,11-2.68,21.29-5.05,30.89-7.07,9.59-2.02,17.63-3.36,24.12-4.04,6.48-.66,10.01-.33,10.58,1.01.56,2.01.85,5.55.85,10.6s-.42,10.44-1.27,16.15c-.84,5.73-2.11,10.95-3.81,15.65-1.69,4.72-3.68,8.07-5.92,10.09-2.83,1.36-13.12,3.2-30.89,5.55-17.78,2.37-38.51,5.55-62.21,9.59-3.95,28.95-7.49,58.57-10.58,88.85-3.11,30.29-5.79,58.23-8.04,83.81-2.84,29.62-5.37,58.57-7.62,86.83-5.64,6.72-11.29,12.45-16.93,17.17-4.52,4.04-9.73,7.73-15.66,11.11-5.92,3.36-11.42,5.05-16.5,5.05-3.39,0-5.92-8.25-7.62-24.73-1.69-16.5-2.69-37.87-2.96-64.12-.29-26.25-.29-55.69,0-88.35.28-32.64.98-65.13,2.11-97.44-7.34,2.7-14.25,5.05-20.73,7.07-6.5,2.01-12.83,4.71-19.04,8.07-.56-4.7-.28-9.09.84-13.13.57-3.36,1.69-7.07,3.39-11.11,1.69-4.04,4.24-7.07,7.62-9.09,2.25-1.34,6.06-3.18,11.43-5.55,5.36-2.35,11.13-5.2,17.35-8.58,1.12-39.03,2.54-73.36,4.23-102.99,1.69-29.61,3.09-48.12,4.23-55.53,1.12-6.72,6.2-13.96,15.24-21.71,9.02-7.73,20.16-15.48,33.43-23.23,13.25-7.73,27.64-15.14,43.16-22.21,15.51-7.07,30.47-13.63,44.86-19.69,14.38-6.06,27.08-11.11,38.08-15.15,11-4.04,18.48-6.72,22.43-8.08l-77.02,19.19v-4.04c0-4.7.28-8.74.85-12.11.55-2.02,4.65-4.55,12.27-7.57s17.2-6.57,28.77-10.6c11.56-4.04,23.97-7.91,37.24-11.61,13.25-3.69,25.82-7.22,37.66-10.6,11.85-3.36,21.86-5.89,30.05-7.57,8.17-1.68,13.11-2.53,14.81-2.53Z" />
  <path class="cls-1" d="m721.44,643.47c-5.42,7.18-9.55,10.18-12.39,9.01-2.86-1.16-8.56-3.51-17.12-7.02-8.56-3.51-17.6-7.36-27.1-11.56-9.51-4.19-18.09-8.49-25.75-12.9-7.66-4.4-11.8-8.04-12.43-10.89-.53-1.48-.65-4.55-.38-9.2.27-4.65.6-10.41.99-17.29.38-6.87.95-14.48,1.71-22.84.76-8.35,1.51-16.7,2.27-25.06,1.84-19.77,4.21-41.66,7.12-65.66l1.27.32c2.11.53,4.06.81,5.87.8-.31-4.12.14-7.72,1.37-10.78,1.22-3.06,3.57-4.38,7.07-3.95,11.63,2.04,22.67,4.6,33.14,7.68,8.77,2.66,17.44,5.75,26,9.25,8.56,3.51,14.94,7.6,19.17,12.25,3.79,4.56,6.13,11.33,7.02,20.32.88,8.99.89,17.88.03,26.65-.87,10.57-12.44,103.67-17.84,110.84Zm-30.2-46.06c3.17,1.7,7.4,2.32,12.69,1.85,5.28-.46,8.52-3.02,9.69-7.67.64-2.54,1.46-8.06,2.49-16.57,1.02-8.51,1.94-17.49,2.75-26.96.81-9.46,1.15-17.92,1.01-25.38-.15-7.46-.85-11.34-2.12-11.66l-14.59-3.68c-.65,7.93-1.82,16.97-3.47,27.12-1.66,10.15-3.29,19.74-4.89,28.78-1.61,9.04-2.89,16.81-3.86,23.31-.97,6.5-.87,10.13.29,10.86Z" />
  <path class="cls-1" d="m942.5,625.35c2.62,2.18,4.79,4.14,6.54,5.89,1.74,1.73,3.16,3.6,4.25,5.56,1.08,1.96,1.41,3.37.98,4.25-.88,1.31-4.58,4.25-11.12,8.83-6.54,4.58-13.96,9.48-22.23,14.72-8.29,5.23-16.25,9.91-23.87,14.06-7.63,4.14-12.76,5.99-15.37,5.56-1.74-.44-6-4.25-12.75-11.44-6.76-7.19-14.39-15.7-22.89-25.51-8.5-9.81-17.01-20.06-25.51-30.74-8.5-10.68-15.59-19.51-21.25-26.49-6.11,24.42-11.23,44.8-15.37,61.15-4.15,16.35-6.65,25.61-7.52,27.8-4.36,6.97-9.59,11.12-15.7,12.43-6.11,1.3-12.21.21-18.31-3.27-1.75-.88-2.5-6.76-2.29-17.66.23-10.9,1.2-25.08,2.95-42.51,1.74-17.43,3.81-37.16,6.21-59.19,2.39-22.01,5.12-44.36,8.17-67.04,6.97-53.19,15.26-113.36,24.85-180.51,17.01-5.66,31.82-10.68,44.47-15.04,10.89-3.49,20.6-6.43,29.1-8.83,8.5-2.39,12.31-2.5,11.44-.32-.88,1.3-2.84,8.83-5.89,22.56-3.06,13.73-7.09,31.29-12.1,52.65-5.02,21.37-10.46,45.13-16.35,71.29-5.89,26.16-11.89,52.11-17.99,77.83,6.54-3.05,14.82-6.97,24.85-11.77,10.03-4.79,19.95-9.16,29.76-13.08,9.81-3.93,18.64-7.08,26.49-9.48,7.85-2.4,13.29-3.16,16.35-2.29,3.93,1.31,8.39,5.78,13.41,13.41,5.01,7.63,9.37,15.92,13.08,24.86,3.7,8.94,6.21,17.44,7.52,25.5,1.31,8.08.65,12.98-1.96,14.72-3.06,2.19-8.17,5.13-15.37,8.83-7.19,3.71-14.61,7.19-22.23,10.46-7.64,3.27-14.61,5.78-20.93,7.52-6.32,1.75-10.14,1.53-11.45-.66-1.3-2.17-2.51-6.21-3.6-12.1-1.09-5.89-2.19-11.87-3.27-17.99-1.09-6.1-2.29-11.33-3.6-15.7-1.31-4.35-2.84-6.31-4.58-5.89-2.19.88-5.78,2.19-10.79,3.93-5.02,1.75-10.14,3.71-15.37,5.89-6.11,2.62-12.65,5.46-19.62,8.5,15.7,15.27,30.3,28.56,43.82,39.9,11.33,10.03,22.45,19.19,33.35,27.47,10.89,8.28,18.53,12.43,22.89,12.43,3.93.43,7.62,0,11.12-1.31,3.48-1.31,6.54-2.62,9.15-3.93,3.05-1.75,5.89-3.5,8.5-5.23Z" />
</svg>